<?xml version="1.0" standalone="no"?><!DOCTYPE svg PUBLIC "-//W3C//DTD SVG 1.1//EN" "http://www.w3.org/Graphics/SVG/1.1/DTD/svg11.dtd"><svg t="1514453687893" class="icon" style="" viewBox="0 0 1024 1024" version="1.1" xmlns="http://www.w3.org/2000/svg" p-id="5450" xmlns:xlink="http://www.w3.org/1999/xlink" width="32" height="32"><defs><style type="text/css"></style></defs><path d="M970.730496 512.021504C970.730496 258.6368 765.392896 53.248 512 53.248 258.605056 53.248 53.269504 258.6368 53.269504 512.021504 53.269504 765.403136 258.605056 970.752 512 970.752c103.99232 0 199.22944-35.369984 276.200448-93.689856 3.154944-3.613696 5.231616-8.165376 5.231616-13.29664 0-11.219968-9.101312-20.3008-20.322304-20.3008-5.842944 0-11.036672 2.260992-14.763008 6.191104l-0.202752 0c-68.886528 50.65216-153.637888 81.011712-245.716992 81.011712-229.38624 0-415.379456-186.034176-415.379456-415.438848 0-229.436416 185.992192-415.470592 415.379456-415.470592 229.446656 0 415.439872 186.034176 415.439872 415.470592 0 70.08768-16.433152 136.032256-47.099904 193.974272l0 0.346112c-0.569344 1.924096-1.179648 3.7888-1.179648 5.855232 0 11.241472 9.122816 20.353024 20.3008 20.353024 8.797184 0 16.086016-5.610496 18.958336-13.359104l0 0.154624C951.487488 659.396608 970.730496 587.964416 970.730496 512.021504z" p-id="5451" fill="#d3217b"></path><path d="M717.9776 259.521536l-45.130752 0c-6.582272 0-12.650496 3.562496-15.858688 9.310208L516.502528 520.536064 374.406144 265.94816c-2.214912-3.968-6.402048-6.426624-10.945536-6.426624L315.5968 259.521536c-3.88608 0-6.316032 4.205568-4.374528 7.57248l157.715456 273.573888L347.508736 540.667904l0 37.638144 141.340672 0 0 74.512384L347.508736 652.818432l0 37.639168 141.340672 0 0 123.672576 55.30624 0L544.155648 690.456576 685.49632 690.456576l0-37.639168L544.155648 652.817408l0-74.512384L685.49632 578.305024l0-37.638144L564.068352 540.66688l158.000128-274.067456C723.883008 263.452672 721.610752 259.521536 717.9776 259.521536z" p-id="5452" fill="#d3217b"></path></svg>