<?xml version="1.0" standalone="no"?><!DOCTYPE svg PUBLIC "-//W3C//DTD SVG 1.1//EN" "http://www.w3.org/Graphics/SVG/1.1/DTD/svg11.dtd"><svg t="1505206349777" class="icon" style="" viewBox="0 0 1024 1024" version="1.1" xmlns="http://www.w3.org/2000/svg" p-id="19322" xmlns:xlink="http://www.w3.org/1999/xlink" width="18" height="18"><defs><style type="text/css"></style></defs><path d="M290.965861 733.034139l171.506119-29.41596 462.161918-462.161918c18.189268-18.189268 29.434379-43.306318 29.434379-71.054289 0-55.493895-44.977377-100.470249-100.470249-100.470249-27.747971 0-52.866045 11.244089-71.036893 29.433356L320.399217 561.52802 290.965861 733.034139zM810.976302 127.780245c10.911514-10.911514 25.981744-17.660218 42.621726-17.660218 33.280987 0 60.281945 26.999934 60.281945 60.281945 0 16.639982-6.749728 31.730679-17.661242 42.641169l-25.981744 25.961278-85.24243-85.24243L810.976302 127.780245zM756.581438 182.175109l85.24243 85.24243L471.811696 637.4512l0-85.262896L386.568243 552.188304 756.581438 182.175109zM356.703051 592.375585l74.921363 0 0 74.92034-90.423429 15.502066L356.703051 592.375585zM933.973614 371.341446c-11.105942 0-20.093641 9.006118-20.093641 20.093641l0 442.068278c0 44.387953-35.988656 80.375585-80.375585 80.375585L190.495612 913.87895c-44.387953 0-80.375585-35.988656-80.375585-80.375585L110.120027 190.495612c0-44.387953 35.988656-80.375585 80.375585-80.375585l442.068278 0c11.105942 0 20.093641-8.987698 20.093641-20.093641 0-11.087523-8.988722-20.093641-20.093641-20.093641l-442.068278 0c-66.582441 0-120.56389 53.982472-120.56389 120.56389l0 643.008776c0 66.601884 53.982472 120.56389 120.56389 120.56389l643.008776 0c66.600861 0 120.56389-53.962006 120.56389-120.56389l0-442.068278C954.068278 380.347564 945.079556 371.341446 933.973614 371.341446z" p-id="19323" fill="#999999"></path></svg>