<?xml version="1.0" standalone="no"?><!DOCTYPE svg PUBLIC "-//W3C//DTD SVG 1.1//EN" "http://www.w3.org/Graphics/SVG/1.1/DTD/svg11.dtd"><svg t="1511422778858" class="icon" style="" viewBox="0 0 1024 1024" version="1.1" xmlns="http://www.w3.org/2000/svg" p-id="14066" xmlns:xlink="http://www.w3.org/1999/xlink" width="18" height="18"><defs><style type="text/css"></style></defs><path d="M994.660284 264.986283 794.886212 10.082167C789.875507 3.725995 782.468369 0 774.407714 0L249.810125 0C241.74947 0 234.342332 3.725995 229.331695 10.082167L29.557623 264.986283C25.85402 269.589026 23.893333 275.287654 23.893333 281.205487L23.893333 997.698628C23.893333 1012.164403 35.657591 1024 50.036053 1024L973.963947 1024C988.342409 1024 1000.106667 1012.164403 1000.106667 997.698628L1000.106667 281.205487C1000.106667 275.287654 998.14598 269.589026 994.660284 264.986283L994.660284 264.986283ZM923.639194 259.287654 538.251674 259.287654 538.251674 52.602743 761.772032 52.602743 923.639194 259.287654 923.639194 259.287654ZM262.445807 52.602743 485.966165 52.602743 485.966165 259.287654 100.578714 259.287654 262.445807 52.602743 262.445807 52.602743ZM76.178773 971.397257 76.178773 311.890398 947.821227 311.890398 947.821227 971.397257 76.178773 971.397257ZM792.27194 497.972634 257.652941 497.972634C243.274479 497.972634 231.510221 509.80823 231.510221 524.274005 231.510221 538.739712 243.274479 550.575309 257.652941 550.575309L792.27194 550.575309C806.650402 550.575309 818.41466 538.739712 818.41466 524.274005 818.41466 509.80823 806.650402 497.972634 792.27194 497.972634ZM690.750942 621.36989 359.173939 621.36989C344.795409 621.36989 333.031219 633.205487 333.031219 647.671262 333.031219 662.136969 344.795409 673.972634 359.173939 673.972634L690.533103 673.972634C704.911633 673.972634 716.675823 662.136969 716.675823 647.671262 716.675823 633.205487 705.129472 621.36989 690.750942 621.36989ZM690.750942 744.547942 359.173939 744.547942C344.795409 744.547942 333.031219 756.383539 333.031219 770.849314 333.031219 785.315089 344.795409 797.150686 359.173939 797.150686L690.533103 797.150686C704.911633 797.150686 716.675823 785.315089 716.675823 770.849314 716.675823 756.383539 705.129472 744.547942 690.750942 744.547942Z" p-id="14067" fill="#999999"></path></svg>