<?xml version="1.0" standalone="no"?><!DOCTYPE svg PUBLIC "-//W3C//DTD SVG 1.1//EN" "http://www.w3.org/Graphics/SVG/1.1/DTD/svg11.dtd"><svg t="1511421327428" class="icon" style="" viewBox="0 0 1024 1024" version="1.1" xmlns="http://www.w3.org/2000/svg" p-id="2510" xmlns:xlink="http://www.w3.org/1999/xlink" width="24" height="24"><defs><style type="text/css"></style></defs><path d="M385.708154 319.218322l121.30374 144.586003 16.254196 0 121.30374-144.586003 62.910818 0-121.333416 144.586003 97.6756 0 0 48.194652L539.235806 511.998977l0 48.196699 144.586003 0 0 48.194652L539.235806 608.390327l0 144.586003-48.194652 0L491.041154 608.390327 346.454128 608.390327l0-48.194652 144.587026 0 0-48.196699L346.454128 511.998977l0-48.194652 97.645924 0L322.796312 319.218322 385.708154 319.218322zM515.138992 993.953683c-117.634164 0-225.320769-42.265616-309.002656-112.266923l45.057195-26.043143c73.140811 56.290027 164.541497 90.115414 263.946484 90.115414 239.565191 0 433.755961-194.193841 433.755961-433.759031 0-239.565191-194.190771-433.758008-433.755961-433.758008s-433.759031 194.192817-433.759031 433.758008c0 86.537935 25.634844 166.990269 69.375044 234.701416l-41.732473 24.098861C61.236178 695.964872 33.184285 607.355765 33.184285 512c0-266.204921 215.781508-481.954707 481.95573-481.954707 266.172175 0 481.954707 215.748762 481.954707 481.954707S781.31219 993.953683 515.138992 993.953683" p-id="2511" fill="#999999"></path></svg>